<svg viewBox="335 281.8299 380.0001 96.6701" width="5000" height="1271.974665269825" xmlns="http://www.w3.org/2000/svg" xmlns:xlink="http://www.w3.org/1999/xlink" preserveAspectRatio="none"><defs></defs><style>.aRAdf8VAGjfillColor {fill:#494949;fill-opacity:1;}.aU0kNN80A30filter-floo {flood-color:#494949;flood-opacity:0.5;}.companyName {fill:#494949;fill-opacity:1;}.icon1 {fill:#494949;fill-opacity:1;}.icon2 {fill:#EBEBEB;fill-opacity:1;}.icon3 {fill:#7A7A7A;fill-opacity:1;}.shapeStroke-str {stroke:#494949;stroke-opacity:1;}</style><defs>
      <filter
        x="-1000"
        y="-1000"
        width="5000"
        height="5000"
        id="U0kNN80A3"
        filterUnits="userSpaceOnUse"
        primitiveUnits="userSpaceOnUse"
        color-interpolation-filters="sRGB">
        <feMerge><feMergeNode in="SourceGraphic" /></feMerge>
      </filter></defs><g opacity="1" transform="rotate(0 508.343 281.8299)">
<svg width="33.3141" height="37.2853" x="508.343" y="281.8299" version="1.1" preserveAspectRatio="none" viewBox="5.326000213623047 0 89.34800720214844 99.99871826171876">
  <g transform="matrix(1 0 0 1 0 0)" class="icon1"><path d="M94.61,42.188c0.037-0.696,0.064-1.4,0.064-2.108C94.675,17.946,74.672,0,49.994,0C25.322,0,5.326,17.946,5.326,40.079  c0,0.708,0.019,1.412,0.065,2.108H5.375c-0.401,7.941,1.896,14.396,1.896,14.396c3.918,9,4.101,11.674,4.571,14.641  c0.458,2.967-1.041,5.28-0.799,7.479c0.242,2.202,2.424,3.072,3.598,3.594c1.18,0.528,3.787-0.464,3.787-0.464  c4.279-2.421,5.212-3.222,8.866-1.149c2.836,1.604,4.634,7.316,5.304,9.827c0.005,0.082,0.019,0.17,0.043,0.266l1.688,6.491  c0.192,0.735,0.94,1.458,1.665,1.604c0.724,0.146,1.4-0.35,1.503-1.103l0.622-4.549c0.224,0.025,0.458,0.049,0.694,0.072  l-0.25,4.466c-0.042,0.759,0.542,1.436,1.299,1.503l2.659,0.238c0.756,0.067,1.342-0.498,1.3-1.257l-0.255-4.611  c0.367,0.018,0.741,0.033,1.12,0.047l-0.235,4.564c-0.039,0.759,0.549,1.437,1.306,1.506l2.652,0.245  c0.757,0.069,1.344-0.495,1.305-1.254l-0.256-4.966c0.18,0,0.357,0.003,0.539,0.003c0.197,0,0.389-0.003,0.585-0.003l-0.243,4.965  c-0.037,0.76,0.552,1.324,1.309,1.255l2.654-0.245c0.757-0.069,1.342-0.747,1.3-1.506l-0.254-4.565  c0.381-0.015,0.76-0.03,1.129-0.048l-0.246,4.613c-0.04,0.759,0.545,1.324,1.303,1.257l2.664-0.238  c0.757-0.067,1.339-0.744,1.293-1.503l-0.268-4.47c0.261-0.025,0.522-0.052,0.771-0.08l0.624,4.561  c0.103,0.753,0.776,1.248,1.498,1.103c0.722-0.146,1.463-0.87,1.646-1.607l1.615-6.485c0.028-0.112,0.037-0.213,0.038-0.307  c0.679-2.53,2.471-8.194,5.284-9.789c3.662-2.072,4.598-1.271,8.876,1.149c0,0,2.606,0.992,3.786,0.464  c1.175-0.521,3.357-1.392,3.596-3.594c0.244-2.199-1.256-4.513-0.796-7.479c0.472-2.967,0.649-5.641,4.566-14.641  c0,0,2.299-6.455,1.9-14.396H94.61z M45.161,73.708c0.614-2.729,1.953-7.196,2.975-9.927c1.022-2.729,2.646-2.729,3.609,0  c0.964,2.73,2.306,7.198,2.982,9.927c0.677,2.729-0.111,5.41-1.75,5.957c-1.641,0.546-4.321,0.546-5.958,0  C45.383,79.118,44.547,76.438,45.161,73.708z M27.895,68.813c-9.901-2.013-11.12-19.228,1.794-21.584  C50.497,43.422,42.904,71.867,27.895,68.813z M72.108,68.813c-15.01,3.055-22.604-25.39-1.795-21.584  C83.224,49.585,82.005,66.8,72.108,68.813z"></path></g>
</svg>
</g><g opacity="1" transform="rotate(0 335 301.4833)">
<svg width="160.3232" height="1.9785" x="335" y="301.4833" version="1.1" preserveAspectRatio="none" viewBox="0 0 160.3232 1.9785">
  <rect x="0" y="0" width="160.3232" height="1.9785" class="icon1 shapeStroke-str" style="stroke-width:0;" rx="0px" ry="0px" />
</svg>
</g><g opacity="1" transform="rotate(0 554.6768 301.4833)">
<svg width="160.3232" height="1.9785" x="554.6768" y="301.4833" version="1.1" preserveAspectRatio="none" viewBox="0 0 160.3232 1.9785">
  <rect x="0" y="0" width="160.3232" height="1.9785" class="icon1 shapeStroke-str" style="stroke-width:0;" rx="0px" ry="0px" />
</svg>
</g><g opacity="1" transform="rotate(0 361.7502 327.2033)">
<svg width="326.4996" height="29.9841" x="361.7502" y="327.2033" version="1.1" preserveAspectRatio="none" viewBox="1.96 -25.44 282.68000000000006 25.96">
  <g transform="matrix(1 0 0 1 0 0)" class="companyName"><path d="M16.84-25.44Q18.60-25.44 20.52-25.14Q22.44-24.84 23.52-24.36L23.52-24.36Q23.88-24.24 23.98-24.06Q24.08-23.88 24.16-23.44L24.16-23.44L24.64-17.88Q24.64-17.76 24.44-17.72Q24.24-17.68 24.20-17.84L24.20-17.84Q22.84-21 20.56-22.72Q18.28-24.44 15.28-24.44L15.28-24.44Q11.32-24.44 9.16-21.52Q7-18.60 7-13.68L7-13.68Q7-10 8.18-6.96Q9.36-3.92 11.50-2.14Q13.64-0.36 16.36-0.36L16.36-0.36Q18.92-0.36 20.94-2.06Q22.96-3.76 24.56-7.24L24.56-7.24Q24.60-7.40 24.82-7.36Q25.04-7.32 25.04-7.20L25.04-7.20L24.44-1.76Q24.36-1.28 24.26-1.14Q24.16-1 23.80-0.84L23.80-0.84Q20.24 0.48 16.48 0.48L16.48 0.48Q11.60 0.48 8.32-1.46Q5.04-3.40 3.50-6.38Q1.96-9.36 1.96-12.60L1.96-12.60Q1.96-16.40 4.02-19.32Q6.08-22.24 9.50-23.84Q12.92-25.44 16.84-25.44L16.84-25.44Z M47.24-14.08Q47.24-16.20 46.42-17.22Q45.60-18.24 43.84-18.24L43.84-18.24Q43.72-18.24 43.72-18.48Q43.72-18.72 43.84-18.72L43.84-18.72L45.52-18.68Q46.88-18.60 47.72-18.60L47.72-18.60Q48.36-18.60 49.64-18.68L49.64-18.68L51.28-18.72Q51.36-18.72 51.36-18.48Q51.36-18.24 51.28-18.24L51.28-18.24Q49.68-18.24 48.96-17.24Q48.24-16.24 48.24-14.08L48.24-14.08L48.24-7.36Q48.24-3.64 46.20-1.56Q44.16 0.52 40.68 0.52L40.68 0.52Q38.44 0.52 36.54-0.38Q34.64-1.28 33.50-2.96Q32.36-4.64 32.36-6.96L32.36-6.96L32.36-15.48Q32.36-16.68 32.18-17.24Q32-17.80 31.46-18.02Q30.92-18.24 29.80-18.24L29.80-18.24Q29.68-18.24 29.68-18.48Q29.68-18.72 29.80-18.72L29.80-18.72L31.72-18.68Q33.32-18.60 34.28-18.60L34.28-18.60Q35.36-18.60 36.96-18.68L36.96-18.68L38.88-18.72Q38.96-18.72 38.96-18.48Q38.96-18.24 38.88-18.24L38.88-18.24Q37.76-18.24 37.22-18Q36.68-17.76 36.48-17.18Q36.28-16.60 36.28-15.40L36.28-15.40L36.28-8Q36.28-4.44 37.82-2.78Q39.36-1.12 41.84-1.12L41.84-1.12Q44.32-1.12 45.78-2.72Q47.24-4.32 47.24-7.28L47.24-7.28L47.24-14.08Z M76.12-0.48Q76.24-0.48 76.24-0.24Q76.24 0 76.12 0L76.12 0L69.56 0Q68.96 0 67.42-2.40Q65.88-4.80 63.76-9L63.76-9Q62.92-8.88 62.08-8.88L62.08-8.88L61.40-8.88L61.40-3.24Q61.40-2 61.58-1.44Q61.76-0.88 62.26-0.68Q62.76-0.48 63.88-0.48L63.88-0.48Q63.96-0.48 63.96-0.24Q63.96 0 63.88 0L63.88 0Q62.68 0 62-0.04L62-0.04L59.28-0.08L56.68-0.04Q55.96 0 54.68 0L54.68 0Q54.60 0 54.60-0.24Q54.60-0.48 54.68-0.48L54.68-0.48Q55.80-0.48 56.32-0.68Q56.84-0.88 57.04-1.46Q57.24-2.04 57.24-3.24L57.24-3.24L57.24-15.48Q57.24-16.68 57.06-17.24Q56.88-17.80 56.36-18.02Q55.84-18.24 54.76-18.24L54.76-18.24Q54.64-18.24 54.64-18.48Q54.64-18.72 54.76-18.72L54.76-18.72L56.72-18.68Q58.32-18.60 59.28-18.60L59.28-18.60Q60.04-18.60 60.68-18.64Q61.32-18.68 61.80-18.72L61.80-18.72Q63.12-18.84 64.28-18.84L64.28-18.84Q67.40-18.84 69.04-17.84Q70.68-16.84 70.68-14.96L70.68-14.96Q70.68-13.40 69.68-12.08Q68.68-10.76 66.92-9.92L66.92-9.92Q69.08-6.28 70.64-4.24Q72.20-2.20 73.48-1.34Q74.76-0.48 76.12-0.48L76.12-0.48ZM61.40-9.68Q61.68-9.64 62.36-9.64L62.36-9.64Q64.64-9.64 65.52-10.70Q66.40-11.76 66.40-13.88L66.40-13.88Q66.40-18.04 63.36-18.04L63.36-18.04Q62.52-18.04 62.12-17.84Q61.72-17.64 61.56-17.10Q61.40-16.56 61.40-15.40L61.40-15.40L61.40-9.68Z M83.08-15.76Q83.08-14.64 83.70-13.82Q84.32-13 85.22-12.42Q86.12-11.84 87.68-11.04L87.68-11.04Q89.48-10.08 90.50-9.42Q91.52-8.76 92.26-7.72Q93-6.68 93-5.24L93-5.24Q93-3.64 92.06-2.34Q91.12-1.04 89.48-0.28Q87.84 0.48 85.80 0.48L85.80 0.48Q83.96 0.48 82.22 0.02Q80.48-0.44 79.80-1L79.80-1Q79.48-1.20 79.48-1.84L79.48-1.84L79.28-6.36Q79.28-6.52 79.48-6.56Q79.68-6.60 79.76-6.44L79.76-6.44Q81.28-3.80 82.84-2.12Q84.40-0.44 86.40-0.44L86.40-0.44Q87.60-0.44 88.40-1.16Q89.20-1.88 89.20-3.32L89.20-3.32Q89.20-4.60 88.54-5.56Q87.88-6.52 86.92-7.18Q85.96-7.84 84.36-8.72L84.36-8.72Q82-10 80.76-11.14Q79.52-12.28 79.52-14.12L79.52-14.12Q79.52-16.44 81.56-17.82Q83.60-19.20 86.48-19.20L86.48-19.20Q87.76-19.20 89.16-18.92Q90.56-18.64 91.40-18.28L91.40-18.28Q91.76-18.16 91.88-17.98Q92-17.80 92-17.48L92-17.48L92-13.68Q92-13.56 91.80-13.50Q91.60-13.44 91.52-13.56L91.52-13.56Q90.76-15.16 89.40-16.72Q88.04-18.28 85.80-18.28L85.80-18.28Q84.44-18.28 83.76-17.58Q83.08-16.88 83.08-15.76L83.08-15.76Z M112.88-5.32Q112.96-5.44 113.16-5.44Q113.36-5.44 113.36-5.32L113.36-5.32Q113.08-2.44 113.08-0.60L113.08-0.60Q113.08-0.28 112.96-0.14Q112.84 0 112.48 0L112.48 0L97.44 0Q97.36 0 97.36-0.24Q97.36-0.48 97.44-0.48L97.44-0.48Q98.60-0.48 99.12-0.68Q99.64-0.88 99.84-1.46Q100.04-2.04 100.04-3.24L100.04-3.24L100.04-15.48Q100.04-16.68 99.84-17.24Q99.64-17.80 99.10-18.02Q98.56-18.24 97.44-18.24L97.44-18.24Q97.36-18.24 97.36-18.48Q97.36-18.72 97.44-18.72L97.44-18.72L111.76-18.72Q112.16-18.72 112.16-18.40L112.16-18.40L112.20-15.92Q112.24-15.16 112.24-14L112.24-14Q112.24-13.88 112.02-13.88Q111.80-13.88 111.76-14L111.76-14Q111-15.76 109.44-16.98Q107.88-18.20 106.28-18.20L106.28-18.20L106-18.20Q105.12-18.20 104.70-17.98Q104.28-17.76 104.14-17.20Q104-16.64 104-15.44L104-15.44L104-10.04Q107.04-10.08 108.48-10.28Q109.92-10.48 110.12-10.48L110.12-10.48Q110.40-10.48 110.40-9.60L110.40-9.60Q110.40-9.20 110.32-8.88Q110.24-8.56 110.12-8.56L110.12-8.56Q109.88-8.56 108.44-8.76Q107-8.96 104-9.04L104-9.04L104-3.40Q104-2.20 104.14-1.64Q104.28-1.08 104.70-0.86Q105.12-0.64 106-0.64L106-0.64L106.44-0.64Q108.32-0.64 110.16-1.98Q112-3.32 112.88-5.32L112.88-5.32Z M127.92 0.16Q126.80 0.16 125.44 0.04L125.44 0.04Q124.96 0 124.24-0.04Q123.52-0.08 122.60-0.08L122.60-0.08L120-0.04Q119.28 0 118 0L118 0Q117.92 0 117.92-0.24Q117.92-0.48 118-0.48L118-0.48Q119.20-0.48 119.74-0.68Q120.28-0.88 120.46-1.46Q120.64-2.04 120.64-3.24L120.64-3.24L120.64-15.48Q120.64-16.68 120.46-17.24Q120.28-17.80 119.74-18.02Q119.20-18.24 118.08-18.24L118.08-18.24Q117.96-18.24 117.96-18.48Q117.96-18.72 118.08-18.72L118.08-18.72L120-18.68Q121.60-18.60 122.60-18.60L122.60-18.60Q123.84-18.60 125.08-18.72L125.08-18.72Q126.68-18.80 127.48-18.80L127.48-18.80Q130.84-18.80 133.28-17.60Q135.72-16.40 137-14.28Q138.28-12.16 138.28-9.48L138.28-9.48Q138.28-6.72 136.96-4.52Q135.64-2.32 133.28-1.08Q130.92 0.16 127.92 0.16L127.92 0.16ZM127.48-0.72Q130.40-0.72 132.04-2.88Q133.68-5.04 133.68-9.04L133.68-9.04Q133.68-12.92 132.04-15.46Q130.40-18 127.12-18L127.12-18Q125.76-18 125.18-17.44Q124.60-16.88 124.60-15.40L124.60-15.40L124.60-3.68Q124.60-2.04 125.18-1.38Q125.76-0.72 127.48-0.72L127.48-0.72Z M169.68-25.44Q171.44-25.44 173.36-25.14Q175.28-24.84 176.36-24.36L176.36-24.36Q176.72-24.24 176.82-24.06Q176.92-23.88 177.00-23.44L177.00-23.44L177.48-17.88Q177.48-17.76 177.28-17.72Q177.08-17.68 177.04-17.84L177.04-17.84Q175.68-21 173.40-22.72Q171.12-24.44 168.12-24.44L168.12-24.44Q164.16-24.44 162.00-21.52Q159.84-18.60 159.84-13.68L159.84-13.68Q159.84-10 161.02-6.96Q162.20-3.92 164.34-2.14Q166.48-0.36 169.20-0.36L169.20-0.36Q171.76-0.36 173.78-2.06Q175.80-3.76 177.40-7.24L177.40-7.24Q177.44-7.40 177.66-7.36Q177.88-7.32 177.88-7.20L177.88-7.20L177.28-1.76Q177.20-1.28 177.10-1.14Q177.00-1 176.64-0.84L176.64-0.84Q173.08 0.48 169.32 0.48L169.32 0.48Q164.44 0.48 161.16-1.46Q157.88-3.40 156.34-6.38Q154.80-9.36 154.80-12.60L154.80-12.60Q154.80-16.40 156.86-19.32Q158.92-22.24 162.34-23.84Q165.76-25.44 169.68-25.44L169.68-25.44Z M200.08-14.08Q200.08-16.20 199.26-17.22Q198.44-18.24 196.68-18.24L196.68-18.24Q196.56-18.24 196.56-18.48Q196.56-18.72 196.68-18.72L196.68-18.72L198.36-18.68Q199.72-18.60 200.56-18.60L200.56-18.60Q201.20-18.60 202.48-18.68L202.48-18.68L204.12-18.72Q204.20-18.72 204.20-18.48Q204.20-18.24 204.12-18.24L204.12-18.24Q202.52-18.24 201.80-17.24Q201.08-16.24 201.08-14.08L201.08-14.08L201.08-7.36Q201.08-3.64 199.04-1.56Q197.00 0.52 193.52 0.52L193.52 0.52Q191.28 0.52 189.38-0.38Q187.48-1.28 186.34-2.96Q185.20-4.64 185.20-6.96L185.20-6.96L185.20-15.48Q185.20-16.68 185.02-17.24Q184.84-17.80 184.30-18.02Q183.76-18.24 182.64-18.24L182.64-18.24Q182.52-18.24 182.52-18.48Q182.52-18.72 182.64-18.72L182.64-18.72L184.56-18.68Q186.16-18.60 187.12-18.60L187.12-18.60Q188.20-18.60 189.80-18.68L189.80-18.68L191.72-18.72Q191.80-18.72 191.80-18.48Q191.80-18.24 191.72-18.24L191.72-18.24Q190.60-18.24 190.06-18Q189.52-17.76 189.32-17.18Q189.12-16.60 189.12-15.40L189.12-15.40L189.12-8Q189.12-4.44 190.66-2.78Q192.20-1.12 194.68-1.12L194.68-1.12Q197.16-1.12 198.62-2.72Q200.08-4.32 200.08-7.28L200.08-7.28L200.08-14.08Z M228.96-0.48Q229.08-0.48 229.08-0.24Q229.08 0 228.96 0L228.96 0L222.40 0Q221.80 0 220.26-2.40Q218.72-4.80 216.60-9L216.60-9Q215.76-8.88 214.92-8.88L214.92-8.88L214.24-8.88L214.24-3.24Q214.24-2 214.42-1.44Q214.60-0.88 215.10-0.68Q215.60-0.48 216.72-0.48L216.72-0.48Q216.80-0.48 216.80-0.24Q216.80 0 216.72 0L216.72 0Q215.52 0 214.84-0.04L214.84-0.04L212.12-0.08L209.52-0.04Q208.80 0 207.52 0L207.52 0Q207.44 0 207.44-0.24Q207.44-0.48 207.52-0.48L207.52-0.48Q208.64-0.48 209.16-0.68Q209.68-0.88 209.88-1.46Q210.08-2.04 210.08-3.24L210.08-3.24L210.08-15.48Q210.08-16.68 209.90-17.24Q209.72-17.80 209.20-18.02Q208.68-18.24 207.60-18.24L207.60-18.24Q207.48-18.24 207.48-18.48Q207.48-18.72 207.60-18.72L207.60-18.72L209.56-18.68Q211.16-18.60 212.12-18.60L212.12-18.60Q212.88-18.60 213.52-18.64Q214.16-18.68 214.64-18.72L214.64-18.72Q215.96-18.84 217.12-18.84L217.12-18.84Q220.24-18.84 221.88-17.84Q223.52-16.84 223.52-14.96L223.52-14.96Q223.52-13.40 222.52-12.08Q221.52-10.76 219.76-9.92L219.76-9.92Q221.92-6.28 223.48-4.24Q225.04-2.20 226.32-1.34Q227.60-0.48 228.96-0.48L228.96-0.48ZM214.24-9.68Q214.52-9.64 215.20-9.64L215.20-9.64Q217.48-9.64 218.36-10.70Q219.24-11.76 219.24-13.88L219.24-13.88Q219.24-18.04 216.20-18.04L216.20-18.04Q215.36-18.04 214.96-17.84Q214.56-17.64 214.40-17.10Q214.24-16.56 214.24-15.40L214.24-15.40L214.24-9.68Z M238.28-3.24Q238.28-2.04 238.48-1.46Q238.68-0.88 239.20-0.68Q239.72-0.48 240.88-0.48L240.88-0.48Q240.96-0.48 240.96-0.24Q240.96 0 240.88 0L240.88 0Q239.64 0 238.96-0.04L238.96-0.04L236.24-0.08L233.64-0.04Q232.92 0 231.64 0L231.64 0Q231.56 0 231.56-0.24Q231.56-0.48 231.64-0.48L231.64-0.48Q232.80-0.48 233.34-0.68Q233.88-0.88 234.08-1.46Q234.28-2.04 234.28-3.24L234.28-3.24L234.28-15.48Q234.28-16.68 234.08-17.24Q233.88-17.80 233.34-18.02Q232.80-18.24 231.64-18.24L231.64-18.24Q231.56-18.24 231.56-18.48Q231.56-18.72 231.64-18.72L231.64-18.72L233.64-18.68Q235.24-18.60 236.24-18.60L236.24-18.60Q237.32-18.60 239.00-18.68L239.00-18.68L240.88-18.72Q240.96-18.72 240.96-18.48Q240.96-18.24 240.88-18.24L240.88-18.24Q239.76-18.24 239.22-18Q238.68-17.76 238.48-17.18Q238.28-16.60 238.28-15.40L238.28-15.40L238.28-3.24Z M255.32 0.48Q252.48 0.48 250.24-0.86Q248.00-2.20 246.76-4.46Q245.52-6.72 245.52-9.36L245.52-9.36Q245.52-12.40 247.10-14.64Q248.68-16.88 251.14-18.04Q253.60-19.20 256.20-19.20L256.20-19.20Q259.04-19.20 261.22-17.82Q263.40-16.44 264.60-14.22Q265.80-12 265.80-9.56L265.80-9.56Q265.80-6.88 264.40-4.58Q263.00-2.28 260.60-0.90Q258.20 0.48 255.32 0.48L255.32 0.48ZM256.24-0.44Q258.48-0.44 259.86-2.64Q261.24-4.84 261.24-8.72L261.24-8.72Q261.24-11.36 260.44-13.52Q259.64-15.68 258.18-16.94Q256.72-18.20 254.80-18.20L254.80-18.20Q252.48-18.20 251.28-16.28Q250.08-14.36 250.08-10.60L250.08-10.60Q250.08-7.76 250.90-5.42Q251.72-3.08 253.12-1.76Q254.52-0.44 256.24-0.44L256.24-0.44Z M274.72-15.76Q274.72-14.64 275.34-13.82Q275.96-13 276.86-12.42Q277.76-11.84 279.32-11.04L279.32-11.04Q281.12-10.08 282.14-9.42Q283.16-8.76 283.90-7.72Q284.64-6.68 284.64-5.24L284.64-5.24Q284.64-3.64 283.70-2.34Q282.76-1.04 281.12-0.28Q279.48 0.48 277.44 0.48L277.44 0.48Q275.60 0.48 273.86 0.02Q272.12-0.44 271.44-1L271.44-1Q271.12-1.20 271.12-1.84L271.12-1.84L270.92-6.36Q270.92-6.52 271.12-6.56Q271.32-6.60 271.40-6.44L271.40-6.44Q272.92-3.80 274.48-2.12Q276.04-0.44 278.04-0.44L278.04-0.44Q279.24-0.44 280.04-1.16Q280.84-1.88 280.84-3.32L280.84-3.32Q280.84-4.60 280.18-5.56Q279.52-6.52 278.56-7.18Q277.60-7.84 276.00-8.72L276.00-8.72Q273.64-10 272.40-11.14Q271.16-12.28 271.16-14.12L271.16-14.12Q271.16-16.44 273.20-17.82Q275.24-19.20 278.12-19.20L278.12-19.20Q279.40-19.20 280.80-18.92Q282.20-18.64 283.04-18.28L283.04-18.28Q283.40-18.16 283.52-17.98Q283.64-17.80 283.64-17.48L283.64-17.48L283.64-13.68Q283.64-13.56 283.44-13.50Q283.24-13.44 283.16-13.56L283.16-13.56Q282.40-15.16 281.04-16.72Q279.68-18.28 277.44-18.28L277.44-18.28Q276.08-18.28 275.40-17.58Q274.72-16.88 274.72-15.76L274.72-15.76Z"/></g>
</svg>
</g><g opacity="1" transform="rotate(0 335.0001 375.5)">
<svg width="380" height="3" x="335.0001" y="375.5" version="1.1" preserveAspectRatio="none" viewBox="0 0 380 3">
  <rect x="0" y="0" width="380" height="3" class="aRAdf8VAGjfillColor shapeStroke-str" style="stroke-width:0;" rx="0px" ry="0px" />
</svg>
</g></svg>